<svg width="36" height="35" viewBox="0 0 36 35" fill="none" xmlns="http://www.w3.org/2000/svg">
<path d="M4.21375 16.5727C3.95601 17.3223 3.75753 17.9516 3.58906 18.5531C2.55501 22.2485 2.90415 25.7353 4.54695 28.1197C5.93854 30.1397 8.14858 31.2073 10.938 31.2073C13.7263 31.2073 15.9356 30.1399 17.327 28.1203C18.9699 25.7357 19.319 22.2485 18.2849 18.5531C17.9004 17.1798 17.4068 15.8386 16.9294 14.5416C16.1636 12.4607 15.4402 10.4952 15.1095 8.37153C14.7598 6.13298 13.4576 3.51904 10.938 3.51904C8.41698 3.51904 7.11411 6.13298 6.76434 8.37243C6.6685 8.99095 6.53405 9.62373 6.35345 10.3068C6.24755 10.707 6.46274 11.124 6.83399 11.2381C7.20496 11.3522 7.59194 11.1202 7.69777 10.72C7.89292 9.98223 8.0386 9.29565 8.14303 8.62176C8.2368 8.0214 8.81228 5.02618 10.938 5.02618C12.5849 5.02618 13.4719 6.96317 13.7309 8.62139C14.0861 10.9025 14.8709 13.0351 15.63 15.0975C16.0967 16.3654 16.5792 17.6765 16.9465 18.9885C17.8383 22.1752 17.561 25.253 16.2048 27.2216C15.0876 28.8431 13.2664 29.7002 10.938 29.7002C8.60853 29.7002 6.78659 28.8429 5.66909 27.221C4.31292 25.2527 4.03564 22.1751 4.92735 18.9886C5.08723 18.4176 5.27698 17.8163 5.52439 17.0967C5.65856 16.7064 5.47394 16.2727 5.11197 16.1281C4.75001 15.9834 4.34785 16.1825 4.21375 16.5727Z" fill="white"/>
<path fill-rule="evenodd" clip-rule="evenodd" d="M14.9033 23.2769C14.9033 25.8882 12.9021 28.0126 10.4423 28.0126C7.98128 28.0126 5.97925 25.8882 5.97925 23.2769C5.97925 22.0275 6.44532 20.3388 7.16682 18.975C8.07993 17.2489 9.24314 16.2983 10.4423 16.2983C13.0636 16.2983 14.9033 20.8257 14.9033 23.2769ZM10.4423 17.8355C9.80937 17.8355 9.05741 18.5428 8.43076 19.7273C7.83126 20.8605 7.42848 22.287 7.42848 23.2769C7.42848 25.0405 8.78051 26.4753 10.4423 26.4753C12.103 26.4753 13.4541 25.0405 13.4541 23.2769C13.4541 22.2871 13.0514 20.8606 12.452 19.7271C11.8257 18.5427 11.0745 17.8355 10.4423 17.8355Z" fill="white"/>
<path fill-rule="evenodd" clip-rule="evenodd" d="M33.2792 16.1814C33.7279 18.3335 34.2865 21.0119 35.6545 24.0653C35.773 24.3298 35.7426 24.6449 35.5763 24.8767C35.4414 25.0647 35.2363 25.1709 35.023 25.1709C34.9733 25.1709 34.9234 25.1652 34.8736 25.1534C31.5607 24.3674 28.9047 21.9233 27.7775 18.7422C27.7073 18.8282 27.6362 18.9138 27.5633 18.998C26.3885 20.356 25.4613 22.0268 24.4797 23.7957L24.4791 23.7968L24.4791 23.7968L24.4791 23.7968L24.4791 23.7968C23.7692 25.0761 23.0352 26.3989 22.1431 27.7335C21.1819 29.1747 20.0666 30.4151 18.8284 31.4218C17.5992 32.8348 16.0241 33.8399 14.1778 34.3742C13.8022 34.4829 13.4173 34.2385 13.3179 33.8285C13.2184 33.4186 13.4421 32.998 13.8175 32.8894C16.1152 32.2245 17.921 30.717 19.0398 28.5297C20.4595 25.7539 20.6859 22.0337 19.661 18.3231C19.2414 16.8005 18.7283 15.392 18.232 14.0298C17.5043 12.0324 16.8169 10.1457 16.509 8.14475C16.0637 5.24549 14.3186 1.85997 10.8659 1.85997C7.41163 1.85997 5.66607 5.24549 5.22078 8.14452C4.9129 10.1457 4.22553 12.0324 3.4978 14.0298L3.49586 14.0352L3.49585 14.0352L3.49583 14.0353C3.00025 15.3958 2.48785 16.8025 2.06891 18.3227C1.04313 22.0336 1.26965 25.7538 2.69004 28.5301C3.80994 30.719 5.61769 32.2271 7.91787 32.8915C8.2933 32.9998 8.51717 33.4202 8.41789 33.8303C8.33458 34.1745 8.04992 34.4021 7.73855 34.4021C7.67908 34.4021 7.61856 34.3937 7.55832 34.3764C4.88069 33.6031 2.77272 31.8406 1.46235 29.2793C-0.143077 26.1413 -0.412751 21.9862 0.722418 17.8793C1.15925 16.2944 1.68379 14.8546 2.19104 13.4622L2.19112 13.462L2.19121 13.4617C2.8904 11.5425 3.5508 9.72976 3.83378 7.89043C4.15052 5.82806 4.95208 3.9572 6.09066 2.62278C7.37364 1.11901 9.02487 0.324219 10.8658 0.324219C12.706 0.324219 14.3566 1.11901 15.6393 2.62278C16.6821 3.84527 17.4409 5.51816 17.8047 7.37562C18.2696 7.17376 18.694 6.96375 19.0868 6.74042C20.7827 5.7737 22.6317 5.34493 24.2933 5.53278C25.2464 5.64067 26.1226 5.94312 26.8999 6.42534L29.4379 4.33062C30.561 3.40516 32.1638 3.64859 33.0112 4.87314V4.87322C33.8594 6.09883 33.6368 7.84999 32.5149 8.77682L30.5978 10.359C32.2855 11.4224 32.736 13.5763 33.2792 16.1814ZM31.8894 5.7993C31.5092 5.24984 30.7898 5.14088 30.2855 5.55632L28.0818 7.37502C28.7961 8.05758 29.3327 9.09565 29.4621 9.37114L31.6668 7.55152C32.1702 7.1357 32.2702 6.34951 31.8894 5.7993ZM23.2764 23.0006C22.667 24.0987 22.0394 25.2296 21.3159 26.3563C21.9109 23.7643 21.8169 20.81 21.0077 17.8799C20.5711 16.296 20.0471 14.8575 19.5405 13.4665L19.5404 13.4663L19.5388 13.462C18.9682 11.8957 18.4236 10.4002 18.0887 8.90345C18.6913 8.65195 19.2348 8.38788 19.737 8.10241C21.6903 6.98896 24.4082 6.43958 26.4723 7.93215C26.4946 7.95355 26.5179 7.9738 26.5427 7.99223C26.9284 8.27823 27.2818 8.63359 27.5943 9.04896C27.5951 9.05003 27.8106 9.35628 27.8502 9.41856C27.8509 9.41955 28.3487 10.331 28.4991 10.8204V10.8205C28.9208 12.2038 28.7942 13.7904 28.1645 15.3284C27.7556 16.3142 27.1734 17.2122 26.541 17.9431C25.2632 19.4202 24.2981 21.1593 23.2764 23.0006ZM29.4756 15.8878C29.2916 16.3467 29.0712 16.8006 28.814 17.2447C29.4235 19.9092 31.274 22.1036 33.7418 23.1761C32.7624 20.6203 32.2956 18.3819 31.9079 16.5226L31.9079 16.5225C31.3928 14.0524 31.0504 12.6106 30.127 11.8569C30.1833 12.5058 30.1582 13.1745 30.049 13.8552C29.9568 14.4297 29.8033 15.0071 29.5949 15.5766C29.5927 15.5828 29.5903 15.5889 29.588 15.595C29.5858 15.6004 29.5837 15.6059 29.5817 15.6114C29.5475 15.7037 29.5126 15.7959 29.4756 15.8878Z" fill="white"/>
<path d="M5.48346 13.1035C5.20966 13.1035 4.98767 13.3418 4.98767 13.6356V13.6371C4.98767 13.9309 5.20966 14.1684 5.48346 14.1684C5.75726 14.1684 5.97925 13.9295 5.97925 13.6356C5.97925 13.3418 5.75726 13.1035 5.48346 13.1035Z" fill="white"/>
<path d="M10.4419 33.3374H10.4391C10.1657 33.3374 9.94543 33.5758 9.94543 33.8699C9.94543 34.1639 10.1685 34.4023 10.4419 34.4023C10.7153 34.4023 10.937 34.1639 10.937 33.8699C10.937 33.5758 10.7153 33.3374 10.4419 33.3374V33.3374Z" fill="white"/>
</svg>
